<?xml version="1.0" encoding="utf-8"?>
<!-- Generator: Adobe Illustrator 24.2.0, SVG Export Plug-In . SVG Version: 6.00 Build 0)  -->
<svg version="1.1" id="Layer_1" xmlns="http://www.w3.org/2000/svg" xmlns:xlink="http://www.w3.org/1999/xlink" x="0px" y="0px"
	 viewBox="0 0 1000 1000" style="enable-background:new 0 0 1000 1000;" xml:space="preserve">
<style type="text/css">
	.st0{fill:#FCB040;}
	.st1{fill:#51C9EF;}
	.st2{fill:#064F8D;}
	.st3{fill:#199DBC;}
	.st4{fill:#002D4F;}
</style>
<g>
	<path class="st0" d="M388.57,781.7c-17.32,0-38.14,0.08-58.96-0.06c-5.62-0.04-11.23-0.8-16.55-2.85
		c-2.46-0.95-4.07-2.68-3.78-5.49c0.26-2.55,2.36-3.51,4.43-4.09c5.82-1.63,11.8-1.23,17.55-0.03
		C351.64,773.46,371.96,778.05,388.57,781.7z"/>
	<path class="st1" d="M402.92,775.54c-16.69-2.68-24.81-4.77-35.09-7.39c-18.52-4.72-37.18-8.83-56.04-12.14
		c-4.96-0.87-10.97-1.59-10.3-8.71c0.6-6.47,4.4-7.69,9.42-8.61c1.8-0.33,5.73,0.29,7.54,0.63
		C349.25,745.04,375.49,761.1,402.92,775.54z"/>
	<path class="st2" d="M726.95,304.18c-9.21-9.85-19.01-18.97-29.31-27.36c-39.28-34.8-87.78-59.43-141.37-69.77
		c-18.48-3.57-37.55-5.44-57.07-5.44c-61.45,0-118.57,18.51-166.1,50.27C252.75,305.56,199.82,397.1,199.82,501
		c0,8.03,0.32,15.98,0.94,23.85c4.55,57.83,25.54,111.04,58.3,154.96c-9.85-19.48-17.8-40.07-23.6-61.56
		c-4.17-15.42-7.23-31.29-9.11-47.52c-1.43-12.39-2.16-25-2.16-37.77c0-43.1,8.36-84.24,23.55-121.9
		c8.66-23.82,20.82-45.95,35.87-65.78c5.91-7.8,12.28-15.25,19.06-22.31c94.2-83.43,243.52-89.26,346.3-4.49
		c40.07,33.05,66.64,75.01,78.63,120.23c4.41,18.62,6.75,38.04,6.75,58.01c0,10.63-0.66,21.1-1.94,31.39
		c-4.17,27.5-13.55,54.86-28.36,80.99c-18,31.74-41.09,58.92-72.97,77.64c-13.86,8.13-28.61,13.69-45.15,11.17
		c-7.48-1.14-15.01-1.78-22.46-1.08c-26.22,2.47-50.64-2.41-73.16-16.37c-5.54-3.44-11.61-3.65-16.03,1.78
		c-4.6,5.66-1.65,11.23,2.15,16.05c3.18,4.03,7.54,6.81,11.89,9.49c6.2,3.8,12.91,6.51,19.68,9.05c6.78,2.53,12.19,6.68,15.44,13.31
		c1.88,3.84,1.92,6.8-2.72,9.11c-5.56,2.78-11.12,5.28-16.68,7.45c-31.41,12.27-62.88,13.96-95.1-5.38
		c-7.62-4.58-15.27-9.13-23.03-13.5c-10.39-5.87-20.96-11.41-31.89-16.28c-1.04-0.47-2.08-0.92-3.13-1.37
		c-9.43-4.07-19.13-7.01-29.62-5.87c-5.63,0.61-11.1,2.08-11.81,8.67c-0.74,6.95,4.76,9.06,10.21,10.17
		c14.37,2.92,27.46,8.98,40.17,15.98c16.7,9.2,32.5,19.83,47.58,31.47c18.77,14.49,40.12,22.74,63.38,25.49
		c34.54,4.07,67.33,2.77,98.29-3.91c36.73-8.78,70.82-24.33,100.9-45.27c12.65-9.11,24.87-19.43,36.66-30.95
		c51.57-50.4,80.35-111.58,90.06-181.35c1.04-7.48,1.86-15.06,2.47-22.73C805.5,431.98,781.49,362.49,726.95,304.18z"/>
	<path class="st1" d="M551.05,536.51c4.87-8.12,9.9-16.14,15.94-23.46c7.04,12.73,10.48,26.9,16.06,40.22
		c4.46,10.64,8.86,21.26,16.25,30.34c8.11,9.96,18.1,13.42,30.72,10.27c15.28-3.82,27.61-12.74,39.8-21.96
		c5.98-4.53,11.56-9.57,17.52-14.13c5.37-4.11,11.21-4.43,15.88,0.74c4.52,5.01,3.3,10.6-1.24,15.08
		c-27.95,27.68-50.16,59.93-73.67,91.2c-9.35,12.44-23.38,18.1-39.65,16.08c-10.36-1.29-20.76-2.35-31.16-3.29
		c-3.35-0.3-4.8-0.85-3.36-4.72c15.23-41.01,10.6-82.21,0.75-123.39C553.83,545.11,553.49,540.49,551.05,536.51z"/>
	<path class="st2" d="M386.76,520.46c4.99,9.5,8.25,19.65,11.2,29.91c-6.22,18.65-8.65,38.04-10.54,57.44
		c-2.91,29.8-2.64,59.48,7.27,88.27c2.08,6.05,4.73,11.9,7.14,17.91c-2.18,1.69-3.45-0.53-4.86-1.31
		c-19.37-10.83-37.92-23.43-60.2-28c-2.78-0.57-3.73-2.77-4.77-4.97c-18.03-38.07-44.8-69.08-77.24-95.5
		c-1.45-1.18-2.95-2.36-4.19-3.75c-3.18-3.57-3.97-7.63-1.44-11.83c2.39-3.96,6.29-4.71,10.56-4.05c4.47,0.69,7.65,3.69,11.01,6.34
		c13.72,10.81,27.8,21.08,44.2,27.52c21.14,8.3,31.29,4.82,43.1-14.42c10.16-16.56,16.32-34.91,23.69-52.72
		C383.2,527.62,385.05,524.07,386.76,520.46z"/>
	<path class="st3" d="M573.36,526.99c-5.88,9.35-11.64,18.75-17.13,28.26c-0.44-1.92-0.88-3.84-1.34-5.76
		c-1.05-4.37-1.39-8.99-3.84-12.98c4.87-8.12,9.9-16.13,15.94-23.46C569.48,517.55,571.52,522.23,573.36,526.99z"/>
	<path class="st4" d="M397.95,550.37c-3.03,9.08-5.16,18.34-6.77,27.69c-2.89-12.46-6.24-24.88-10.03-37.24
		c-0.2-0.66-0.49-1.28-0.73-1.92c-0.25-0.89-0.51-1.77-0.77-2.65c0.66-1.65,1.33-3.3,2.01-4.94c1.52-3.68,3.38-7.23,5.08-10.84
		C391.74,529.96,395,540.11,397.95,550.37z"/>
	<path class="st0" d="M551.05,536.51c-24.37,38.38-46.77,77.56-50.54,124.42c-1.61,0.97-2.84-0.36-4.22-0.97
		c-13.63-6.02-26.62-3.4-34.74,6.99c-7.84,10.04-6.95,25.19,2.45,36.34c8.31,9.86,19.2,16.11,30.85,21.18
		c1.92,0.84,3.79,1.8,5.9,2.81c-24.74,14.91-61.01,13.44-83.78-2.72c-3.7-2.62-2.64-5.37-2.31-8.37
		c6.1-55.91,0.31-110.64-16.13-164.33c-0.16-0.51-0.38-1-0.57-1.5c-2.95-10.26-6.21-20.41-11.2-29.91
		c-5.65-16.85-14.4-32.2-23.1-47.57c-1.58-2.8-3.48-5.44-4.81-8.35c-2.79-6.14-2.66-12.17,2.62-16.95
		c5.45-4.93,11.62-4.85,17.85-1.29c4.87,2.78,7.75,7.25,10.28,12.05c9.99,18.97,20.12,37.86,32.65,55.33
		c7.36,10.27,15.35,19.98,25.55,27.66c12.4,9.34,25.37,10.44,39.12,3.13c13.46-7.16,24.35-17.47,34.73-28.35
		c10.92-11.45,21.5-23.21,32.37-34.71c2.75-2.91,5.8-5.62,9.08-7.9c5.52-3.83,11.39-4.95,16.88,0.15
		c5.03,4.67,5.79,12.27,1.72,18.35c-4.76,7.11-9.79,14.04-14.71,21.04C560.95,520.38,555.92,528.39,551.05,536.51z"/>
	<path class="st1" d="M524.26,368.19c0.07,25.43-20.63,46.23-45.97,46.18c-25.29-0.05-46.16-21.03-46.02-46.27
		c0.14-24.94,20.66-45.46,45.72-45.72C503.37,322.11,524.19,342.73,524.26,368.19z"/>
	<path class="st0" d="M439.1,491.83c-0.07-16.21,12.81-29.11,29.05-29.11c15.81,0,28.74,12.61,29.07,28.38
		c0.34,15.92-12.73,29.4-28.75,29.64C452.48,520.98,439.17,507.88,439.1,491.83z"/>
	<path class="st2" d="M622.54,387.36c15.76-0.19,28.37,11.75,28.83,27.28c0.46,15.7-12.41,28.93-28.3,29.07
		c-15.32,0.14-28.05-12.54-28.15-28.04C594.81,399.88,606.84,387.54,622.54,387.36z"/>
	<path class="st1" d="M628.87,574.39c-12.49-0.04-22.53-9.92-22.64-22.28c-0.11-12.43,10.72-23.05,23.22-22.76
		c12.15,0.28,22.43,10.87,22.29,22.95C651.6,564.54,641.36,574.43,628.87,574.39z"/>
	<path class="st0" d="M322.89,401.12c7.9,0.2,14.14,6.76,13.96,14.69c-0.18,7.84-6.9,14.31-14.64,14.09
		c-7.9-0.23-14.03-6.74-13.89-14.78C308.46,407.16,314.96,400.91,322.89,401.12z"/>
	<path class="st2" d="M306.39,569.81c0.19-10.63,9.16-19.41,19.68-19.28c11.02,0.14,19.73,9.33,19.33,20.41
		c-0.38,10.7-9.45,19.24-20.05,18.89C314.75,589.47,306.19,580.44,306.39,569.81z"/>
	<path class="st0" d="M678.78,493.9c-0.1-5.16,3.93-9.46,9.05-9.67c5.29-0.21,9.82,4.03,9.92,9.28c0.09,5.29-4.24,9.7-9.53,9.69
		C683.11,503.2,678.88,499.04,678.78,493.9z"/>
	<path class="st1" d="M262.7,491.82c9.82,0.25,17.16,8.29,16.6,18.18c-0.53,9.35-8.05,16.18-17.56,15.93
		c-9.93-0.26-17.12-8.13-16.56-18.11C245.7,498.47,253.25,491.58,262.7,491.82z"/>
</g>
</svg>
