<?xml version="1.0" encoding="utf-8"?>
<!-- Generator: Adobe Illustrator 24.2.0, SVG Export Plug-In . SVG Version: 6.00 Build 0)  -->
<svg version="1.1" id="Layer_1" xmlns="http://www.w3.org/2000/svg" xmlns:xlink="http://www.w3.org/1999/xlink" x="0px" y="0px"
	 viewBox="0 0 1000 1000" style="enable-background:new 0 0 1000 1000;" xml:space="preserve">
<style type="text/css">
	.st0{fill:#FCB040;}
	.st1{fill:#51C9EF;}
	.st2{fill:#064F8D;}
	.st3{fill:#199DBC;}
	.st4{fill:#002D4F;}
	.st5{fill:#55C8EC;}
</style>
<g>
	<g>
		<path class="st0" d="M248.89,574.7c-4.59,0-10.12,0.02-15.64-0.01c-1.49-0.01-2.98-0.21-4.39-0.76c-0.65-0.25-1.08-0.71-1-1.46
			c0.07-0.68,0.63-0.93,1.17-1.08c1.54-0.43,3.13-0.33,4.65-0.01C239.1,572.52,244.49,573.74,248.89,574.7z"/>
		<path class="st1" d="M252.7,573.07c-4.43-0.71-6.58-1.27-9.31-1.96c-4.91-1.25-9.86-2.34-14.86-3.22
			c-1.32-0.23-2.91-0.42-2.73-2.31c0.16-1.72,1.17-2.04,2.5-2.28c0.48-0.09,1.52,0.08,2,0.17
			C238.46,564.98,245.42,569.24,252.7,573.07z"/>
		<path class="st2" d="M338.63,448.07c-2.44-2.61-5.04-5.03-7.77-7.26c-10.42-9.23-23.28-15.76-37.49-18.5
			c-4.9-0.95-9.96-1.44-15.14-1.44c-16.3,0-31.44,4.91-44.05,13.33c-21.31,14.24-35.35,38.51-35.35,66.06
			c0,2.13,0.08,4.24,0.25,6.32c1.21,15.34,6.77,29.45,15.46,41.09c-2.61-5.16-4.72-10.63-6.26-16.32c-1.11-4.09-1.92-8.3-2.42-12.6
			c-0.38-3.29-0.57-6.63-0.57-10.02c0-11.43,2.22-22.34,6.25-32.33c2.3-6.32,5.52-12.19,9.51-17.45c1.57-2.07,3.26-4.05,5.05-5.92
			c24.98-22.12,64.58-23.67,91.84-1.19c10.63,8.76,17.67,19.89,20.85,31.88c1.17,4.94,1.79,10.09,1.79,15.38
			c0,2.82-0.17,5.6-0.52,8.32c-1.11,7.29-3.59,14.55-7.52,21.48c-4.77,8.42-10.9,15.63-19.35,20.59c-3.68,2.16-7.59,3.63-11.97,2.96
			c-1.98-0.3-3.98-0.47-5.96-0.29c-6.95,0.66-13.43-0.64-19.4-4.34c-1.47-0.91-3.08-0.97-4.25,0.47c-1.22,1.5-0.44,2.98,0.57,4.26
			c0.84,1.07,2,1.81,3.15,2.52c1.64,1.01,3.42,1.73,5.22,2.4c1.8,0.67,3.23,1.77,4.09,3.53c0.5,1.02,0.51,1.8-0.72,2.42
			c-1.48,0.74-2.95,1.4-4.42,1.98c-8.33,3.25-16.68,3.7-25.22-1.43c-2.02-1.22-4.05-2.42-6.11-3.58c-2.76-1.56-5.56-3.03-8.46-4.32
			c-0.28-0.12-0.55-0.25-0.83-0.36c-2.5-1.08-5.07-1.86-7.85-1.56c-1.49,0.16-2.94,0.55-3.13,2.3c-0.2,1.84,1.26,2.4,2.71,2.7
			c3.81,0.78,7.28,2.38,10.65,4.24c4.43,2.44,8.62,5.26,12.62,8.35c4.98,3.84,10.64,6.03,16.81,6.76
			c9.16,1.08,17.85,0.73,26.07-1.04c9.74-2.33,18.78-6.45,26.76-12c3.35-2.42,6.59-5.15,9.72-8.21
			c13.68-13.36,21.31-29.59,23.88-48.09c0.28-1.98,0.49-3.99,0.65-6.03C359.46,481.96,353.09,463.53,338.63,448.07z"/>
		<path class="st1" d="M291.98,509.68c1.29-2.15,2.63-4.28,4.23-6.22c1.87,3.38,2.78,7.13,4.26,10.67c1.18,2.82,2.35,5.64,4.31,8.04
			c2.15,2.64,4.8,3.56,8.15,2.72c4.05-1.01,7.32-3.38,10.55-5.82c1.59-1.2,3.07-2.54,4.65-3.75c1.42-1.09,2.97-1.18,4.21,0.2
			c1.2,1.33,0.87,2.81-0.33,4c-7.41,7.34-13.3,15.89-19.54,24.19c-2.48,3.3-6.2,4.8-10.51,4.26c-2.75-0.34-5.51-0.62-8.26-0.87
			c-0.89-0.08-1.27-0.22-0.89-1.25c4.04-10.88,2.81-21.8,0.2-32.72C292.72,511.96,292.63,510.74,291.98,509.68z"/>
		<path class="st2" d="M248.41,505.43c1.32,2.52,2.19,5.21,2.97,7.93c-1.65,4.94-2.29,10.09-2.8,15.23
			c-0.77,7.9-0.7,15.77,1.93,23.41c0.55,1.6,1.25,3.16,1.89,4.75c-0.58,0.45-0.92-0.14-1.29-0.35c-5.14-2.87-10.06-6.21-15.96-7.43
			c-0.74-0.15-0.99-0.73-1.27-1.32c-4.78-10.1-11.88-18.32-20.48-25.33c-0.39-0.31-0.78-0.63-1.11-0.99
			c-0.84-0.95-1.05-2.02-0.38-3.14c0.63-1.05,1.67-1.25,2.8-1.07c1.19,0.18,2.03,0.98,2.92,1.68c3.64,2.87,7.37,5.59,11.72,7.3
			c5.61,2.2,8.3,1.28,11.43-3.82c2.69-4.39,4.33-9.26,6.28-13.98C247.47,507.32,247.96,506.38,248.41,505.43z"/>
		<path class="st3" d="M297.89,507.16c-1.56,2.48-3.09,4.97-4.54,7.49c-0.12-0.51-0.23-1.02-0.36-1.53
			c-0.28-1.16-0.37-2.39-1.02-3.44c1.29-2.15,2.63-4.28,4.23-6.22C296.87,504.65,297.41,505.89,297.89,507.16z"/>
		<path class="st4" d="M251.38,513.36c-0.8,2.41-1.37,4.86-1.79,7.34c-0.77-3.31-1.66-6.6-2.66-9.88c-0.05-0.17-0.13-0.34-0.19-0.51
			c-0.07-0.24-0.14-0.47-0.2-0.7c0.18-0.44,0.35-0.87,0.53-1.31c0.4-0.98,0.9-1.92,1.35-2.88
			C249.73,507.95,250.6,510.64,251.38,513.36z"/>
		<path class="st0" d="M291.98,509.68c-6.46,10.18-12.4,20.57-13.4,33c-0.43,0.26-0.75-0.1-1.12-0.26c-3.61-1.6-7.06-0.9-9.21,1.85
			c-2.08,2.66-1.84,6.68,0.65,9.64c2.2,2.61,5.09,4.27,8.18,5.62c0.51,0.22,1,0.48,1.57,0.74c-6.56,3.95-16.18,3.56-22.22-0.72
			c-0.98-0.7-0.7-1.42-0.61-2.22c1.62-14.83,0.08-29.34-4.28-43.58c-0.04-0.14-0.1-0.27-0.15-0.4c-0.78-2.72-1.65-5.41-2.97-7.93
			c-1.5-4.47-3.82-8.54-6.12-12.61c-0.42-0.74-0.92-1.44-1.27-2.21c-0.74-1.63-0.71-3.23,0.7-4.5c1.44-1.31,3.08-1.29,4.73-0.34
			c1.29,0.74,2.06,1.92,2.73,3.2c2.65,5.03,5.34,10.04,8.66,14.67c1.95,2.72,4.07,5.3,6.77,7.33c3.29,2.48,6.73,2.77,10.37,0.83
			c3.57-1.9,6.46-4.63,9.21-7.52c2.89-3.04,5.7-6.16,8.58-9.2c0.73-0.77,1.54-1.49,2.41-2.09c1.46-1.01,3.02-1.31,4.48,0.04
			c1.33,1.24,1.53,3.25,0.46,4.87c-1.26,1.89-2.6,3.72-3.9,5.58C294.6,505.4,293.27,507.53,291.98,509.68z"/>
		<path class="st1" d="M284.87,465.05c0.02,6.74-5.47,12.26-12.19,12.25c-6.71-0.01-12.24-5.58-12.2-12.27
			c0.04-6.61,5.48-12.06,12.12-12.13C279.33,452.83,284.86,458.29,284.87,465.05z"/>
		<path class="st0" d="M262.29,497.83c-0.02-4.3,3.4-7.72,7.7-7.72c4.19,0,7.62,3.35,7.71,7.53c0.09,4.22-3.38,7.8-7.62,7.86
			C265.84,505.56,262.31,502.09,262.29,497.83z"/>
		<path class="st2" d="M310.94,470.13c4.18-0.05,7.52,3.11,7.65,7.24c0.12,4.16-3.29,7.67-7.51,7.71c-4.06,0.04-7.44-3.33-7.47-7.44
			C303.58,473.45,306.77,470.18,310.94,470.13z"/>
		<path class="st1" d="M312.62,519.73c-3.31-0.01-5.98-2.63-6.01-5.91c-0.03-3.3,2.84-6.11,6.16-6.04c3.22,0.08,5.95,2.88,5.91,6.09
			C318.64,517.11,315.93,519.74,312.62,519.73z"/>
		<path class="st0" d="M231.47,473.78c2.1,0.05,3.75,1.79,3.7,3.89c-0.05,2.08-1.83,3.79-3.88,3.74c-2.1-0.06-3.72-1.79-3.68-3.92
			C227.65,475.38,229.37,473.72,231.47,473.78z"/>
		<path class="st2" d="M227.1,518.51c0.05-2.82,2.43-5.15,5.22-5.11c2.92,0.04,5.23,2.47,5.13,5.41c-0.1,2.84-2.5,5.1-5.32,5.01
			C229.32,523.73,227.05,521.33,227.1,518.51z"/>
		<path class="st0" d="M325.85,498.38c-0.03-1.37,1.04-2.51,2.4-2.56c1.4-0.06,2.61,1.07,2.63,2.46c0.02,1.4-1.12,2.57-2.53,2.57
			C327,500.85,325.88,499.74,325.85,498.38z"/>
		<path class="st1" d="M215.51,497.83c2.6,0.07,4.55,2.2,4.4,4.82c-0.14,2.48-2.14,4.29-4.66,4.23c-2.63-0.07-4.54-2.16-4.39-4.8
			C211,499.6,213,497.77,215.51,497.83z"/>
	</g>
	<g>
		<g>
			<path class="st0" d="M389.19,528h0.54l3.88,11.61l3.94-11.61h1.05l-4.48,12.74h-1.05l-2.01-5.95l-1.6-5.03l-1.6,4.99l-2.03,5.99
				h-1.05L380.34,528h1.03l3.92,11.61L389.19,528z"/>
			<path class="st0" d="M410.34,533.86h7.44v0.89h-7.44v5.01h8.02v0.94h-8.98V528h8.76v0.93h-7.8V533.86z"/>
			<path class="st0" d="M451.88,530.45c-0.93-1.49-2.41-1.71-3.85-1.72c-1.49,0-3.85,0.54-3.85,2.58c0,1.61,1.74,2,3.88,2.39
				c2.45,0.47,4.99,0.91,4.99,3.65c-0.02,2.87-2.9,3.56-5.03,3.56c-1.98,0-4.23-0.82-5.21-2.76l0.87-0.44
				c0.78,1.54,2.78,2.3,4.34,2.3c1.56,0,4.05-0.44,4.05-2.68c0.02-1.9-2.09-2.32-4.17-2.72c-2.32-0.45-4.7-0.93-4.7-3.27
				c-0.05-2.68,2.74-3.52,4.83-3.52c1.81,0,3.39,0.29,4.64,2.16L451.88,530.45z"/>
			<path class="st0" d="M473.92,528v7.89c0,6.64-9.72,6.66-9.72,0V528h0.96v7.89c0,5.46,7.8,5.44,7.8,0V528H473.92z"/>
			<path class="st0" d="M486.64,536.31v4.39h-0.98V528c1.85,0,3.72,0,5.57,0c5.51,0,5.51,8.31,0,8.31H486.64z M486.64,528.91v6.51
				h4.59c4.23,0,4.23-6.51,0-6.51H486.64z"/>
			<path class="st0" d="M507.57,536.31v4.39h-0.98V528c1.85,0,3.72,0,5.57,0c5.51,0,5.51,8.31,0,8.31H507.57z M507.57,528.91v6.51
				h4.59c4.23,0,4.23-6.51,0-6.51H507.57z"/>
			<path class="st0" d="M539.79,534.37c-0.02,3.34-2.14,6.55-6.4,6.55c-4.26,0-6.4-3.23-6.4-6.59c0-3.41,2.12-6.53,6.4-6.53
				C537.66,527.8,539.8,530.94,539.79,534.37z M527.94,534.35c0.02,2.87,1.83,5.66,5.44,5.66c3.63,0,5.46-2.79,5.46-5.66
				c0-2.94-1.81-5.64-5.46-5.64C529.74,528.71,527.92,531.36,527.94,534.35z"/>
			<path class="st0" d="M561.32,540.7h-1.29l-4.39-4.81h-3.46v4.81h-0.98V528c1.87,0,3.72,0,5.59,0c2.76,0,4.15,1.98,4.17,3.95
				c0.02,2.07-1.34,3.88-4.12,3.88L561.32,540.7z M552.17,534.97h4.5c2.21,0,3.19-1.25,3.21-3.03c0.02-1.49-1-3.03-3.1-3.03h-4.61
				V534.97z"/>
			<path class="st0" d="M576.19,528.89h-4.59v-0.87h10.16v0.87h-4.59v11.81h-0.98V528.89z"/>
			<path class="st0" d="M607.7,533.86h7.44v0.89h-7.44v5.01h8.02v0.94h-8.98V528h8.76v0.93h-7.8V533.86z"/>
			<path class="st0" d="M637.05,540.7l-1.4-3.12h-7.58l-1.38,3.12h-1.05l5.7-12.7h1.07l5.7,12.7H637.05z M635.27,536.67l-3.41-7.73
				l-3.41,7.73H635.27z"/>
			<path class="st0" d="M658.53,538.94c-1.27,1.27-2.96,1.9-4.63,1.9c-4.28,0-6.51-2.99-6.53-6.42c-0.04-3.39,2.18-6.57,6.53-6.57
				c1.67,0,3.36,0.64,4.63,1.91l-0.67,0.58c-1.09-1.09-2.52-1.61-3.96-1.61c-3.7,0-5.61,2.61-5.59,5.66
				c0.04,2.97,1.92,5.55,5.59,5.55c1.43,0,2.88-0.54,3.97-1.61L658.53,538.94z"/>
			<path class="st0" d="M678.97,540.7v-5.77h-8.09v5.77h-0.98V528h0.98v6.04h8.09V528h0.98v12.7H678.97z"/>
			<path class="st0" d="M718.14,534.37c-0.02,3.34-2.14,6.55-6.4,6.55c-4.26,0-6.4-3.23-6.4-6.59c0-3.41,2.12-6.53,6.4-6.53
				C716.01,527.8,718.16,530.94,718.14,534.37z M706.29,534.35c0.02,2.87,1.83,5.66,5.44,5.66c3.63,0,5.46-2.79,5.46-5.66
				c0-2.94-1.81-5.64-5.46-5.64C708.09,528.71,706.27,531.36,706.29,534.35z"/>
			<path class="st0" d="M732.39,528.89h-4.59v-0.87h10.16v0.87h-4.59v11.81h-0.98V528.89z"/>
			<path class="st0" d="M757.97,540.7v-5.77h-8.09v5.77h-0.98V528h0.98v6.04h8.09V528h0.98v12.7H757.97z"/>
			<path class="st0" d="M771.78,533.86h7.44v0.89h-7.44v5.01h8.02v0.94h-8.98V528h8.76v0.93h-7.8V533.86z"/>
			<path class="st0" d="M801.16,540.7h-1.29l-4.39-4.81h-3.47v4.81h-0.98V528c1.87,0,3.72,0,5.59,0c2.76,0,4.15,1.98,4.17,3.95
				c0.02,2.07-1.34,3.88-4.12,3.88L801.16,540.7z M792.02,534.97h4.5c2.21,0,3.19-1.25,3.21-3.03c0.02-1.49-1-3.03-3.1-3.03h-4.61
				V534.97z"/>
		</g>
		<g>
			<g>
				<path class="st5" d="M406.02,488.58H391v23.43h-10.66v-47.25c0-3.04,2.41-5.68,5.45-5.68h32.85v9.19H391v11.37h20.71v3.5
					C411.71,486.17,409.06,488.58,406.02,488.58z"/>
				<path class="st5" d="M428.13,459.08h5.84l21.56,36.35v-36.35h10.66v52.93h-11.29l-21.56-36.35v36.35h-10.66v-47.25
					C422.68,461.73,425.1,459.08,428.13,459.08z"/>
			</g>
			<g>
				<path class="st2" d="M476.55,459.08h10.51l10.67,40.32l10.35-40.32h16.11v52.93h-10.2v-42.74l-10.82,42.74h-11.05l-10.82-42.74
					v42.74h-10.2v-47.25C471.1,461.73,473.52,459.08,476.55,459.08z"/>
				<path class="st2" d="M565.92,491.62c0,14.17-6.31,21.33-18.76,21.33s-18.68-7.16-18.68-21.33c0-14.32,6.23-21.41,18.68-21.41
					S565.92,477.3,565.92,491.62z M538.98,491.62c0.08,8.02,2.8,12.07,8.1,12.07c5.29,0,7.94-4.2,8.02-12.38
					c0-8.02-2.65-11.99-7.94-11.99C541.71,479.32,538.98,483.45,538.98,491.62z"/>
				<path class="st2" d="M581.56,478.23h-1.09v22.81c0,1.71,1.01,2.65,3.04,2.65h3.19v7.86c-3.35,0.31-7.01,0.31-10.9-0.08
					c-3.89-0.39-5.76-2.8-5.68-7.4v-44.99h5.37c2.72,0,4.98,2.49,4.98,5.22v6.54h6.23v2.26
					C586.7,476.05,584.44,478.23,581.56,478.23z"/>
				<path class="st2" d="M597.21,459.08c3.43,0,5.06,1.71,4.98,5.06v3.04h-10.35v-8.1H597.21z M597.21,470.84
					c3.35,0,4.98,1.63,4.98,4.98v36.2h-10.35v-41.18H597.21z"/>
				<path class="st2" d="M646.49,470.84l-14.56,41.18h-10.98l-14.48-41.18h11.44l8.33,28.88l7.16-25.22
					c0.78-2.41,2.49-3.66,5.06-3.66H646.49z"/>
				<path class="st2" d="M658.71,481.58h-10.35c1.25-7.63,6.62-11.37,16.11-11.37c11.37,0,17.13,3.74,17.36,11.37v14.01
					c0,11.37-6.85,16.43-17.98,17.2c-9.89,0.78-16.74-3.81-16.74-12.92c0.23-9.89,7.4-12.53,17.83-13.55
					c4.44-0.54,6.69-1.87,6.69-4.13c-0.23-2.34-2.41-3.5-6.69-3.5C661.28,478.7,659.25,479.63,658.71,481.58z M671.79,495.12v-3.81
					c-2.41,1.01-5.22,1.87-8.25,2.49c-4.13,0.78-6.23,2.72-6.23,5.76c0.23,3.27,1.95,4.83,5.22,4.83
					C668.28,504.39,671.79,500.96,671.79,495.12z"/>
				<path class="st2" d="M699.03,478.23h-1.09v22.81c0,1.71,1.01,2.65,3.04,2.65h3.19v7.86c-3.35,0.31-7.01,0.31-10.9-0.08
					c-3.89-0.39-5.76-2.8-5.68-7.4v-44.99h5.37c2.72,0,4.98,2.49,4.98,5.22v6.54h6.23v2.26
					C704.17,476.05,701.91,478.23,699.03,478.23z"/>
				<path class="st2" d="M714.68,459.08c3.43,0,5.06,1.71,4.98,5.06v3.04h-10.35v-8.1H714.68z M714.68,470.84
					c3.35,0,4.98,1.63,4.98,4.98v36.2h-10.35v-41.18H714.68z"/>
				<path class="st2" d="M761.85,491.62c0,14.17-6.31,21.33-18.76,21.33s-18.68-7.16-18.68-21.33c0-14.32,6.23-21.41,18.68-21.41
					S761.85,477.3,761.85,491.62z M734.92,491.62c0.08,8.02,2.8,12.07,8.1,12.07c5.29,0,7.94-4.2,8.02-12.38
					c0-8.02-2.65-11.99-7.94-11.99C737.64,479.32,734.92,483.45,734.92,491.62z"/>
				<path class="st2" d="M795.87,512.02c-3.43-0.23-5.14-1.87-5.14-5.14V485.7c-0.23-4.28-2.57-6.38-7.16-6.38
					c-4.59,0-6.93,2.1-7.01,6.38v26.31h-10.51v-24.21c0-11.75,5.92-17.59,17.67-17.59c11.75,0,17.51,5.84,17.44,17.59v24.21H795.87z
					"/>
			</g>
		</g>
	</g>
</g>
</svg>
